. 
 
http://www.torrenting.com          :     Once & For all ;)


               www . Torrenting . Com 

(((((((((((((= Enjoy No RAR releases =))))))))))))))))))))


...................................NFO:....................................

.[img]http://i.imgur.com/mdXQe.jpg[/img]


[size=5][color=blue]Real.Steel.2011.DVDRiP.XViD.AC3-5.1.SeT-CM8[/color][/size]

[size=5][color=blue]CM8 Doing It Right The First Time[/color][/size] :D

[color=blue]Duration                          2h 6mn
Overall bit rate                  2 129 Kbps
Width                             720 pixels
Height                            320 pixels
Audio                             AC3 6 channels[/color]

Source: DVDR Thx 3LT0n

[url]http://www.imdb.com/title/tt0433035/[/url]

[size=4][color=blue]Complete name                    : Real.Steel.2011.DVDRiP.XViD.AC3-5.1.SeT-CM8.avi
Format                           : AVI
Format/Info                      : Audio Video Interleave
File size                        : 1.89 GiB
Duration                         : 2h 6mn
Overall bit rate                 : 2 129 Kbps
Writing library                  : VirtualDub build 30091/release

Video
ID                               : 0
Format                           : MPEG-4 Visual
Format profile                   : Advanced Simple@L5
Format settings, BVOP            : 2
Format settings, QPel            : No
Format settings, GMC             : No warppoints
Format settings, Matrix          : Default (H.263)
Codec ID                         : XVID
Codec ID/Hint                    : XviD
Duration                         : 2h 6mn
Bit rate                         : 1 800 Kbps
Width                            : 720 pixels
Height                           : 320 pixels
Display aspect ratio             : 2.25:1
Frame rate                       : 23.976 fps
Color space                      : YUV
Chroma subsampling               : 4:2:0
Bit depth                        : 8 bits
Scan type                        : Progressive
Compression mode                 : Lossy
Bits/(Pixel*Frame)               : 0.326
Stream size                      : 1.59 GiB (85%)
Writing library                  : XviD 63

Audio
ID                               : 1
Format                           : AC-3
Format/Info                      : Audio Coding 3
Mode extension                   : CM (complete main)
Codec ID                         : 2000
Duration                         : 2h 6mn
Bit rate mode                    : Constant
Bit rate                         : 320 Kbps
Channel(s)                       : 6 channels
Channel positions                : Front: L C R, Side: L R, LFE
Sampling rate                    : 48.0 KHz
Bit depth                        : 16 bits
Compression mode                 : Lossy
Stream size                      : 290 MiB (15%)
Alignment                        : Split accross interleaves
Interleave, duration             : 42 ms (1.00 video frame)
Interleave, preload duration     : 500 ms[/color][/size]

[img]http://img844.imageshack.us/img844/6854/lkjhgtyuio.png[/img]
[img]http://img7.imageshack.us/img7/1607/ujmjklo.png[/img]
[img]http://img687.imageshack.us/img687/963/dcvfrtg.png[/img]
[img]http://img252.imageshack.us/img252/3639/qazxswed.png[/img]
[img]http://img24.imageshack.us/img24/8219/zxcvbnm.png[/img]
[img]http://img215.imageshack.us/img215/284/asdfghjklb.png[/img]
[img]http://img201.imageshack.us/img201/3435/qwertyuio.png[/img]

Notes

Enjoy  ;)


[size=4][color=blue]LOOKING FOR ANYTHING YOU WANT TO LOOK AND SOUND BETTER

CM8@hushmail.com[/color][/size]


big shout out to everyone at CM8
Greets to SAiNTS,DTRG,SANTi,BDK, THC,SAFC, AMIABLE and mSD
 all the other Legends out there Past and Present..